<svg height="489pt" viewBox="0 0 489.23375 489" width="489pt" xmlns="http://www.w3.org/2000/svg"><path d="m442.597656 12.789062c-3-3.007812-7.070312-4.695312-11.320312-4.695312-4.246094 0-8.316406 1.6875-11.320313 4.695312l-113.117187 113.117188c-3.003906 3.003906-4.695313 7.074219-4.695313 11.320312 0 4.246094 1.691407 8.320313 4.695313 11.320313l16.960937 16.960937 16.957031 16.960938c3.003907 3.003906 7.074219 4.691406 11.320313 4.691406s8.320313-1.6875 11.320313-4.691406l113.121093-113.121094c3.003907-3 4.691407-7.074218 4.691407-11.320312s-1.6875-8.320313-4.691407-11.320313zm0 0" fill="#78b9eb"/><path d="m148.4375 261.667969 1.121094 1.121093 1.359375 1.4375 37.121093 37.039063 39.601563 39.601563c3 3.003906 7.070313 4.691406 11.316406 4.691406 4.25 0 8.320313-1.6875 11.320313-4.691406l45.28125-45.199219 45.199218-45.28125c3.003907-3 4.695313-7.074219 4.695313-11.320313s-1.691406-8.316406-4.695313-11.320312l-39.597656-39.597656-37.042968-37.121094-2.558594-2.480469-42.71875-42.71875c-20.085938-20.796875-49.832032-29.136719-77.800782-21.816406-27.972656 7.320312-49.816406 29.164062-57.136718 57.136719-7.320313 27.96875 1.019531 57.710937 21.816406 77.796874zm14.402344-146.722657c26.507812 0 48 21.492188 48 48 0 26.511719-21.492188 48-48 48-26.511719 0-48-21.488281-48-48 0-26.507812 21.488281-48 48-48zm0 0" fill="#78b9eb"/><path d="m182.359375 340.867188-33.921875-33.921876c-3-3.003906-7.070312-4.691406-11.320312-4.691406-4.246094 0-8.316407 1.6875-11.316407 4.691406l-113.121093 113.121094c-3.003907 3-4.695313 7.074219-4.695313 11.320313 0 4.246093 1.691406 8.320312 4.695313 11.320312l33.917968 33.921875c3.003906 3.003906 7.074219 4.691406 11.320313 4.691406 4.246093 0 8.320312-1.6875 11.320312-4.691406l113.121094-113.121094c3.003906-3 4.691406-7.074218 4.691406-11.320312s-1.6875-8.320312-4.691406-11.320312zm0 0" fill="#78b9eb"/><g fill="#1a6fb0"><path d="m482.199219 41.074219-33.9375-33.941407c-9.382813-9.355468-24.5625-9.355468-33.941407 0l-113.136718 113.132813c-9.375 9.375-9.375 24.574219 0 33.945313l11.3125 11.3125-11.3125 11.320312-76.6875-76.695312c-34.367188-34.367188-90.085938-34.363282-124.453125.003906-34.367188 34.367187-34.363281 90.085937.003906 124.449218l76.6875 76.691407-11.320313 11.308593-11.3125-11.308593c-9.371093-9.371094-24.5625-9.371094-33.933593 0l-113.136719 113.132812c-9.375 9.375-9.375 24.574219 0 33.945313l33.9375 33.9375c9.371094 9.375 24.570312 9.375 33.941406 0l113.136719-113.136719c9.351563-9.382813 9.351563-24.5625 0-33.945313l-11.3125-11.3125 11.3125-11.3125 33.9375 33.9375c9.371094 9.375 24.570313 9.375 33.941406 0l39.601563-39.59375 11.886718 11.890626c-13.539062 19.046874-11.394531 45.074218 5.082032 61.648437 3.121094 3.121094 8.1875 3.121094 11.3125 0l56.566406-56.570313c3.121094-3.121093 3.121094-8.1875 0-11.3125-16.574219-16.480468-42.605469-18.628906-61.65625-5.085937l-11.878906-11.878906 39.597656-39.601563c9.371094-9.371094 9.371094-24.5625 0-33.9375l-33.941406-33.941406 11.3125-11.320312 11.316406 11.3125c9.375 9.367187 24.566406 9.367187 33.9375 0l113.144531-113.128907c9.371094-9.375 9.367188-24.574219-.007812-33.945312zm-305.464844 316.800781-113.09375 113.121094c-3.171875 3.019531-8.152344 3.019531-11.320313 0l-33.976562-33.9375c-3.117188-3.121094-3.117188-8.179688 0-11.304688l113.136719-113.152344c3.121093-3.121093 8.1875-3.121093 11.308593 0l33.9375 33.9375c1.503907 1.5 2.347657 3.535157 2.351563 5.660157 0 2.121093-.84375 4.160156-2.34375 5.660156zm169.703125-43.3125c5.714844-.003906 11.324219 1.519531 16.25 4.417969l-43.847656 43.816406c-5.824219-9.894531-5.902344-22.148437-.203125-32.117187 5.699219-9.964844 16.296875-16.117188 27.777343-16.117188zm-11.3125-69.839844-90.519531 90.503906c-3.15625 3.03125-8.144531 3.03125-11.300781 0l-121.945313-121.933593c-28.121094-28.121094-28.121094-73.710938-.003906-101.828125 28.117187-28.121094 73.707031-28.125 101.828125-.003906l121.933594 121.949218c3.128906 3.121094 3.128906 8.1875.007812 11.3125zm135.761719-180.976562-113.136719 113.089844c-3.125 3.121093-8.1875 3.121093-11.3125 0l-33.941406-33.9375c-3.117188-3.121094-3.117188-8.179688 0-11.304688l113.136718-113.140625c1.5-1.503906 3.535157-2.347656 5.65625-2.347656 2.125 0 4.160157.84375 5.660157 2.347656l33.9375 33.933594c1.515625 1.503906 2.367187 3.546875 2.367187 5.679687 0 2.132813-.851562 4.179688-2.367187 5.679688zm0 0"/><path d="m162.839844 106.945312c-30.929688 0-56 25.074219-56 56 0 30.929688 25.070312 56 56 56 30.925781 0 56-25.070312 56-56-.035156-30.910156-25.085938-55.960937-56-56zm0 96c-22.09375 0-40-17.90625-40-40 0-22.089843 17.90625-40 40-40 22.089844 0 40 17.910157 40 40-.027344 22.082032-17.921875 39.976563-40 40zm0 0"/><path d="m345.863281 379.914062-11.3125 11.3125c10.089844 10.179688 24.851563 14.183594 38.703125 10.496094 13.847656-3.683594 24.667969-14.5 28.359375-28.351562 3.691407-13.847656-.308593-28.613282-10.488281-38.703125l-11.308594 11.3125c9.371094 9.375 9.367188 24.570312-.007812 33.941406-9.378906 9.371094-24.574219 9.367187-33.945313-.007813zm0 0"/><path d="m311.925781 413.859375c28.117188 28.117187 73.707031 28.117187 101.824219 0s28.117188-73.707031 0-101.824219l-11.3125 11.3125c21.871094 21.871094 21.871094 57.328125 0 79.199219-21.867188 21.871094-57.328125 21.871094-79.199219 0zm0 0"/><path d="m425.0625 300.722656c22.480469 22.179688 31.351562 54.707032 23.246094 85.226563-8.105469 30.523437-31.945313 54.363281-62.464844 62.46875-30.523438 8.105469-63.046875-.765625-85.230469-23.246094l-11.308593 11.3125c40.71875 39.976563 106.046874 39.675781 146.398437-.675781 40.351563-40.347656 40.648437-105.675782.671875-146.398438zm0 0"/></g></svg>